<svg viewBox="-16 -32 880 192" width="880" height="192" xmlns="http://www.w3.org/2000/svg"><desc>Generated with https://github.com/Platane/snk</desc><style>:root{--cb:#1b1f230a;--cs:purple;--ce:#ebedf0;--c0:#ebedf0;--c1:#9be9a8;--c2:#40c463;--c3:#30a14e;--c4:#216e39}.c{shape-rendering:geometricPrecision;fill:var(--ce);stroke-width:1px;stroke:var(--cb);animation:none 25700ms linear infinite;width:12px;height:12px}@keyframes c0{61.47%{fill:var(--c2)}61.49%,100%{fill:var(--ce)}}.c.c0{fill:var(--c2);animation-name:c0}@keyframes c1{13.22%{fill:var(--c1)}13.24%,100%{fill:var(--ce)}}.c.c1{fill:var(--c1);animation-name:c1}@keyframes c2{13.61%{fill:var(--c1)}13.63%,100%{fill:var(--ce)}}.c.c2{fill:var(--c1);animation-name:c2}@keyframes c3{14%{fill:var(--c1)}14.02%,100%{fill:var(--ce)}}.c.c3{fill:var(--c1);animation-name:c3}@keyframes c4{63.41%{fill:var(--c3)}63.43%,100%{fill:var(--ce)}}.c.c4{fill:var(--c3);animation-name:c4}@keyframes c5{16.72%{fill:var(--c1)}16.74%,100%{fill:var(--ce)}}.c.c5{fill:var(--c1);animation-name:c5}@keyframes c6{83.26%{fill:var(--c4)}83.28%,100%{fill:var(--ce)}}.c.c6{fill:var(--c4);animation-name:c6}@keyframes c7{58.74%{fill:var(--c2)}58.76%,100%{fill:var(--ce)}}.c.c7{fill:var(--c2);animation-name:c7}@keyframes c8{37.34%{fill:var(--c1)}37.36%,100%{fill:var(--ce)}}.c.c8{fill:var(--c1);animation-name:c8}@keyframes c9{37.73%{fill:var(--c1)}37.75%,100%{fill:var(--ce)}}.c.c9{fill:var(--c1);animation-name:c9}@keyframes ca{84.81%{fill:var(--c4)}84.83%,100%{fill:var(--ce)}}.c.ca{fill:var(--c4);animation-name:ca}@keyframes cb{84.43%{fill:var(--c4)}84.45%,100%{fill:var(--ce)}}.c.cb{fill:var(--c4);animation-name:cb}@keyframes cc{67.69%{fill:var(--c3)}67.71%,100%{fill:var(--ce)}}.c.cc{fill:var(--c3);animation-name:cc}@keyframes cd{82.87%{fill:var(--c4)}82.89%,100%{fill:var(--ce)}}.c.cd{fill:var(--c4);animation-name:cd}@keyframes ce{64.58%{fill:var(--c3)}64.6%,100%{fill:var(--ce)}}.c.ce{fill:var(--c3);animation-name:ce}@keyframes cf{36.95%{fill:var(--c1)}36.97%,100%{fill:var(--ce)}}.c.cf{fill:var(--c1);animation-name:cf}@keyframes cg{21%{fill:var(--c1)}21.02%,100%{fill:var(--ce)}}.c.cg{fill:var(--c1);animation-name:cg}@keyframes ch{42.4%{fill:var(--c1)}42.42%,100%{fill:var(--ce)}}.c.ch{fill:var(--c1);animation-name:ch}@keyframes ci{42.79%{fill:var(--c2)}42.81%,100%{fill:var(--ce)}}.c.ci{fill:var(--c2);animation-name:ci}@keyframes cj{36.57%{fill:var(--c1)}36.59%,100%{fill:var(--ce)}}.c.cj{fill:var(--c1);animation-name:cj}@keyframes ck{18.67%{fill:var(--c1)}18.69%,100%{fill:var(--ce)}}.c.ck{fill:var(--c1);animation-name:ck}@keyframes cl{19.06%{fill:var(--c1)}19.08%,100%{fill:var(--ce)}}.c.cl{fill:var(--c1);animation-name:cl}@keyframes cm{42.01%{fill:var(--c2)}42.03%,100%{fill:var(--ce)}}.c.cm{fill:var(--c2);animation-name:cm}@keyframes cn{41.62%{fill:var(--c1)}41.64%,100%{fill:var(--ce)}}.c.cn{fill:var(--c1);animation-name:cn}@keyframes co{43.57%{fill:var(--c2)}43.59%,100%{fill:var(--ce)}}.c.co{fill:var(--c2);animation-name:co}@keyframes cp{36.18%{fill:var(--c1)}36.2%,100%{fill:var(--ce)}}.c.cp{fill:var(--c1);animation-name:cp}@keyframes cq{19.45%{fill:var(--c1)}19.47%,100%{fill:var(--ce)}}.c.cq{fill:var(--c1);animation-name:cq}@keyframes cr{65.75%{fill:var(--c3)}65.77%,100%{fill:var(--ce)}}.c.cr{fill:var(--c3);animation-name:cr}@keyframes cs{44.74%{fill:var(--c2)}44.76%,100%{fill:var(--ce)}}.c.cs{fill:var(--c2);animation-name:cs}@keyframes ct{47.07%{fill:var(--c2)}47.09%,100%{fill:var(--ce)}}.c.ct{fill:var(--c2);animation-name:ct}@keyframes cu{24.11%{fill:var(--c1)}24.13%,100%{fill:var(--ce)}}.c.cu{fill:var(--c1);animation-name:cu}@keyframes cv{50.18%{fill:var(--c2)}50.2%,100%{fill:var(--ce)}}.c.cv{fill:var(--c2);animation-name:cv}@keyframes cw{49.8%{fill:var(--c2)}49.82%,100%{fill:var(--ce)}}.c.cw{fill:var(--c2);animation-name:cw}@keyframes cx{29.17%{fill:var(--c1)}29.19%,100%{fill:var(--ce)}}.c.cx{fill:var(--c1);animation-name:cx}@keyframes cy{29.95%{fill:var(--c1)}29.97%,100%{fill:var(--ce)}}.c.cy{fill:var(--c1);animation-name:cy}@keyframes cz{31.9%{fill:var(--c1)}31.92%,100%{fill:var(--ce)}}.c.cz{fill:var(--c1);animation-name:cz}@keyframes c10{52.52%{fill:var(--c2)}52.54%,100%{fill:var(--ce)}}.c.c10{fill:var(--c2);animation-name:c10}@keyframes c11{28.01%{fill:var(--c1)}28.03%,100%{fill:var(--ce)}}.c.c11{fill:var(--c1);animation-name:c11}@keyframes c12{27.62%{fill:var(--c1)}27.64%,100%{fill:var(--ce)}}.c.c12{fill:var(--c1);animation-name:c12}@keyframes c13{27.23%{fill:var(--c1)}27.25%,100%{fill:var(--ce)}}.c.c13{fill:var(--c1);animation-name:c13}@keyframes c14{26.84%{fill:var(--c1)}26.86%,100%{fill:var(--ce)}}.c.c14{fill:var(--c1);animation-name:c14}@keyframes c15{30.34%{fill:var(--c1)}30.36%,100%{fill:var(--ce)}}.c.c15{fill:var(--c1);animation-name:c15}@keyframes c16{75.87%{fill:var(--c3)}75.89%,100%{fill:var(--ce)}}.c.c16{fill:var(--c3);animation-name:c16}@keyframes c17{76.25%{fill:var(--c4)}76.27%,100%{fill:var(--ce)}}.c.c17{fill:var(--c4);animation-name:c17}.u{transform-origin:0 0;transform:scale(0,1);animation:none linear 25700ms infinite}@keyframes u0{13.22%{transform:scale(0.000,1)}13.24%,13.61%{transform:scale(0.043,1)}13.63%,14%{transform:scale(0.087,1)}14.02%,16.72%{transform:scale(0.130,1)}16.74%,18.67%{transform:scale(0.174,1)}18.69%,19.06%{transform:scale(0.217,1)}19.08%,19.45%{transform:scale(0.261,1)}19.47%,21%{transform:scale(0.304,1)}21.02%,24.11%{transform:scale(0.348,1)}24.13%,26.84%{transform:scale(0.391,1)}26.86%,27.23%{transform:scale(0.435,1)}27.25%,27.62%{transform:scale(0.478,1)}27.64%,28.01%{transform:scale(0.522,1)}28.03%,29.17%{transform:scale(0.565,1)}29.19%,29.95%{transform:scale(0.609,1)}29.97%,30.34%{transform:scale(0.652,1)}30.36%,31.9%{transform:scale(0.696,1)}31.92%,36.18%{transform:scale(0.739,1)}36.2%,36.57%{transform:scale(0.783,1)}36.59%,36.95%{transform:scale(0.826,1)}36.97%,37.34%{transform:scale(0.870,1)}37.36%,37.73%{transform:scale(0.913,1)}37.75%,41.62%{transform:scale(0.957,1)}41.64%,100%{transform:scale(1.000,1)}}.u.u0{fill:var(--c1);animation-name:u0;transform-origin:0.0px 0}@keyframes u1{42.01%{transform:scale(0.000,1)}42.03%,100%{transform:scale(1.000,1)}}.u.u1{fill:var(--c2);animation-name:u1;transform-origin:443.3px 0}@keyframes u2{42.4%{transform:scale(0.000,1)}42.42%,100%{transform:scale(1.000,1)}}.u.u2{fill:var(--c1);animation-name:u2;transform-origin:462.5px 0}@keyframes u3{42.79%{transform:scale(0.000,1)}42.81%,43.57%{transform:scale(0.111,1)}43.59%,44.74%{transform:scale(0.222,1)}44.76%,47.07%{transform:scale(0.333,1)}47.09%,49.8%{transform:scale(0.444,1)}49.82%,50.18%{transform:scale(0.556,1)}50.2%,52.52%{transform:scale(0.667,1)}52.54%,58.74%{transform:scale(0.778,1)}58.76%,61.47%{transform:scale(0.889,1)}61.49%,100%{transform:scale(1.000,1)}}.u.u3{fill:var(--c2);animation-name:u3;transform-origin:481.8px 0}@keyframes u4{63.41%{transform:scale(0.000,1)}63.43%,64.58%{transform:scale(0.200,1)}64.6%,65.75%{transform:scale(0.400,1)}65.77%,67.69%{transform:scale(0.600,1)}67.71%,75.87%{transform:scale(0.800,1)}75.89%,100%{transform:scale(1.000,1)}}.u.u4{fill:var(--c3);animation-name:u4;transform-origin:655.3px 0}@keyframes u5{76.25%{transform:scale(0.000,1)}76.27%,82.87%{transform:scale(0.200,1)}82.89%,83.26%{transform:scale(0.400,1)}83.28%,84.43%{transform:scale(0.600,1)}84.45%,84.81%{transform:scale(0.800,1)}84.83%,100%{transform:scale(1.000,1)}}.u.u5{fill:var(--c4);animation-name:u5;transform-origin:751.6px 0}.s{shape-rendering:geometricPrecision;fill:var(--cs);animation:none linear 25700ms infinite}@keyframes s0{0%,99.61%{transform:translate(0px,-16px)}0.39%{transform:translate(0px,0px)}12.84%{transform:translate(512px,0px)}14.01%{transform:translate(512px,48px)}15.18%{transform:translate(560px,48px)}15.56%,68.48%{transform:translate(560px,32px)}15.95%,83.66%{transform:translate(576px,32px)}17.12%{transform:translate(576px,-16px)}18.29%{transform:translate(624px,-16px)}19.07%{transform:translate(624px,16px)}19.46%{transform:translate(640px,16px)}19.84%{transform:translate(640px,0px)}20.62%{transform:translate(608px,0px)}21.01%{transform:translate(608px,16px)}23.74%{transform:translate(720px,16px)}24.12%{transform:translate(720px,32px)}25.29%{transform:translate(768px,32px)}25.68%{transform:translate(768px,48px)}26.85%,30.74%{transform:translate(816px,48px)}28.02%{transform:translate(816px,0px)}28.4%{transform:translate(800px,0px)}29.96%{transform:translate(800px,64px)}30.35%,75.49%{transform:translate(816px,64px)}31.13%,77.82%{transform:translate(800px,48px)}31.91%{transform:translate(800px,80px)}37.35%,58.37%{transform:translate(576px,80px)}37.74%{transform:translate(576px,96px)}38.13%{transform:translate(592px,96px)}38.52%,64.2%{transform:translate(592px,80px)}40.08%{transform:translate(656px,80px)}40.86%{transform:translate(656px,48px)}41.63%,43.19%{transform:translate(624px,48px)}42.02%{transform:translate(624px,32px)}42.41%{transform:translate(608px,32px)}42.8%{transform:translate(608px,48px)}43.97%{transform:translate(624px,80px)}44.36%{transform:translate(640px,80px)}44.75%{transform:translate(640px,96px)}45.53%{transform:translate(672px,96px)}47.08%{transform:translate(672px,32px)}49.81%{transform:translate(784px,32px)}50.19%{transform:translate(784px,16px)}50.58%{transform:translate(800px,16px)}52.53%,76.65%{transform:translate(800px,96px)}52.92%{transform:translate(784px,96px)}53.31%{transform:translate(784px,80px)}58.75%{transform:translate(576px,64px)}60.7%{transform:translate(496px,64px)}61.48%{transform:translate(496px,96px)}63.04%{transform:translate(560px,96px)}63.42%{transform:translate(560px,80px)}64.59%{transform:translate(592px,64px)}65.76%{transform:translate(640px,64px)}66.54%{transform:translate(640px,32px)}69.26%{transform:translate(560px,64px)}76.26%{transform:translate(816px,96px)}83.27%{transform:translate(576px,48px)}84.05%{transform:translate(592px,32px)}84.82%{transform:translate(592px,0px)}96.89%{transform:translate(96px,0px)}97.28%{transform:translate(96px,-16px)}}.s.s0{transform:translate(0px,-16px);animation-name:s0}@keyframes s1{0%,99.61%{transform:translate(16px,-16px)}0.39%{transform:translate(0px,-16px)}0.78%{transform:translate(0px,0px)}13.23%{transform:translate(512px,0px)}14.4%{transform:translate(512px,48px)}15.56%{transform:translate(560px,48px)}15.95%,68.87%{transform:translate(560px,32px)}16.34%,84.05%{transform:translate(576px,32px)}17.51%{transform:translate(576px,-16px)}18.68%{transform:translate(624px,-16px)}19.46%{transform:translate(624px,16px)}19.84%{transform:translate(640px,16px)}20.23%{transform:translate(640px,0px)}21.01%{transform:translate(608px,0px)}21.4%{transform:translate(608px,16px)}24.12%{transform:translate(720px,16px)}24.51%{transform:translate(720px,32px)}25.68%{transform:translate(768px,32px)}26.07%{transform:translate(768px,48px)}27.24%,31.13%{transform:translate(816px,48px)}28.4%{transform:translate(816px,0px)}28.79%{transform:translate(800px,0px)}30.35%{transform:translate(800px,64px)}30.74%,75.88%{transform:translate(816px,64px)}31.52%,78.21%{transform:translate(800px,48px)}32.3%{transform:translate(800px,80px)}37.74%,58.75%{transform:translate(576px,80px)}38.13%{transform:translate(576px,96px)}38.52%{transform:translate(592px,96px)}38.91%,64.59%{transform:translate(592px,80px)}40.47%{transform:translate(656px,80px)}41.25%{transform:translate(656px,48px)}42.02%,43.58%{transform:translate(624px,48px)}42.41%{transform:translate(624px,32px)}42.8%{transform:translate(608px,32px)}43.19%{transform:translate(608px,48px)}44.36%{transform:translate(624px,80px)}44.75%{transform:translate(640px,80px)}45.14%{transform:translate(640px,96px)}45.91%{transform:translate(672px,96px)}47.47%{transform:translate(672px,32px)}50.19%{transform:translate(784px,32px)}50.58%{transform:translate(784px,16px)}50.97%{transform:translate(800px,16px)}52.92%,77.04%{transform:translate(800px,96px)}53.31%{transform:translate(784px,96px)}53.7%{transform:translate(784px,80px)}59.14%{transform:translate(576px,64px)}61.09%{transform:translate(496px,64px)}61.87%{transform:translate(496px,96px)}63.42%{transform:translate(560px,96px)}63.81%{transform:translate(560px,80px)}64.98%{transform:translate(592px,64px)}66.15%{transform:translate(640px,64px)}66.93%{transform:translate(640px,32px)}69.65%{transform:translate(560px,64px)}76.65%{transform:translate(816px,96px)}83.66%{transform:translate(576px,48px)}84.44%{transform:translate(592px,32px)}85.21%{transform:translate(592px,0px)}97.28%{transform:translate(96px,0px)}97.67%{transform:translate(96px,-16px)}}.s.s1{transform:translate(16px,-16px);animation-name:s1}@keyframes s2{0%,99.61%{transform:translate(32px,-16px)}0.78%{transform:translate(0px,-16px)}1.17%{transform:translate(0px,0px)}13.62%{transform:translate(512px,0px)}14.79%{transform:translate(512px,48px)}15.95%{transform:translate(560px,48px)}16.34%,69.26%{transform:translate(560px,32px)}16.73%,84.44%{transform:translate(576px,32px)}17.9%{transform:translate(576px,-16px)}19.07%{transform:translate(624px,-16px)}19.84%{transform:translate(624px,16px)}20.23%{transform:translate(640px,16px)}20.62%{transform:translate(640px,0px)}21.4%{transform:translate(608px,0px)}21.79%{transform:translate(608px,16px)}24.51%{transform:translate(720px,16px)}24.9%{transform:translate(720px,32px)}26.07%{transform:translate(768px,32px)}26.46%{transform:translate(768px,48px)}27.63%,31.52%{transform:translate(816px,48px)}28.79%{transform:translate(816px,0px)}29.18%{transform:translate(800px,0px)}30.74%{transform:translate(800px,64px)}31.13%,76.26%{transform:translate(816px,64px)}31.91%,78.6%{transform:translate(800px,48px)}32.68%{transform:translate(800px,80px)}38.13%,59.14%{transform:translate(576px,80px)}38.52%{transform:translate(576px,96px)}38.91%{transform:translate(592px,96px)}39.3%,64.98%{transform:translate(592px,80px)}40.86%{transform:translate(656px,80px)}41.63%{transform:translate(656px,48px)}42.41%,43.97%{transform:translate(624px,48px)}42.8%{transform:translate(624px,32px)}43.19%{transform:translate(608px,32px)}43.58%{transform:translate(608px,48px)}44.75%{transform:translate(624px,80px)}45.14%{transform:translate(640px,80px)}45.53%{transform:translate(640px,96px)}46.3%{transform:translate(672px,96px)}47.86%{transform:translate(672px,32px)}50.58%{transform:translate(784px,32px)}50.97%{transform:translate(784px,16px)}51.36%{transform:translate(800px,16px)}53.31%,77.43%{transform:translate(800px,96px)}53.7%{transform:translate(784px,96px)}54.09%{transform:translate(784px,80px)}59.53%{transform:translate(576px,64px)}61.48%{transform:translate(496px,64px)}62.26%{transform:translate(496px,96px)}63.81%{transform:translate(560px,96px)}64.2%{transform:translate(560px,80px)}65.37%{transform:translate(592px,64px)}66.54%{transform:translate(640px,64px)}67.32%{transform:translate(640px,32px)}70.04%{transform:translate(560px,64px)}77.04%{transform:translate(816px,96px)}84.05%{transform:translate(576px,48px)}84.82%{transform:translate(592px,32px)}85.6%{transform:translate(592px,0px)}97.67%{transform:translate(96px,0px)}98.05%{transform:translate(96px,-16px)}}.s.s2{transform:translate(32px,-16px);animation-name:s2}@keyframes s3{0%,99.61%{transform:translate(48px,-16px)}1.17%{transform:translate(0px,-16px)}1.56%{transform:translate(0px,0px)}14.01%{transform:translate(512px,0px)}15.18%{transform:translate(512px,48px)}16.34%{transform:translate(560px,48px)}16.73%,69.65%{transform:translate(560px,32px)}17.12%,84.82%{transform:translate(576px,32px)}18.29%{transform:translate(576px,-16px)}19.46%{transform:translate(624px,-16px)}20.23%{transform:translate(624px,16px)}20.62%{transform:translate(640px,16px)}21.01%{transform:translate(640px,0px)}21.79%{transform:translate(608px,0px)}22.18%{transform:translate(608px,16px)}24.9%{transform:translate(720px,16px)}25.29%{transform:translate(720px,32px)}26.46%{transform:translate(768px,32px)}26.85%{transform:translate(768px,48px)}28.02%,31.91%{transform:translate(816px,48px)}29.18%{transform:translate(816px,0px)}29.57%{transform:translate(800px,0px)}31.13%{transform:translate(800px,64px)}31.52%,76.65%{transform:translate(816px,64px)}32.3%,78.99%{transform:translate(800px,48px)}33.07%{transform:translate(800px,80px)}38.52%,59.53%{transform:translate(576px,80px)}38.91%{transform:translate(576px,96px)}39.3%{transform:translate(592px,96px)}39.69%,65.37%{transform:translate(592px,80px)}41.25%{transform:translate(656px,80px)}42.02%{transform:translate(656px,48px)}42.8%,44.36%{transform:translate(624px,48px)}43.19%{transform:translate(624px,32px)}43.58%{transform:translate(608px,32px)}43.97%{transform:translate(608px,48px)}45.14%{transform:translate(624px,80px)}45.53%{transform:translate(640px,80px)}45.91%{transform:translate(640px,96px)}46.69%{transform:translate(672px,96px)}48.25%{transform:translate(672px,32px)}50.97%{transform:translate(784px,32px)}51.36%{transform:translate(784px,16px)}51.75%{transform:translate(800px,16px)}53.7%,77.82%{transform:translate(800px,96px)}54.09%{transform:translate(784px,96px)}54.47%{transform:translate(784px,80px)}59.92%{transform:translate(576px,64px)}61.87%{transform:translate(496px,64px)}62.65%{transform:translate(496px,96px)}64.2%{transform:translate(560px,96px)}64.59%{transform:translate(560px,80px)}65.76%{transform:translate(592px,64px)}66.93%{transform:translate(640px,64px)}67.7%{transform:translate(640px,32px)}70.43%{transform:translate(560px,64px)}77.43%{transform:translate(816px,96px)}84.44%{transform:translate(576px,48px)}85.21%{transform:translate(592px,32px)}85.99%{transform:translate(592px,0px)}98.05%{transform:translate(96px,0px)}98.44%{transform:translate(96px,-16px)}}.s.s3{transform:translate(48px,-16px);animation-name:s3}</style><rect class="c" x="2" y="2" rx="2" ry="2"/><rect class="c" x="2" y="18" rx="2" ry="2"/><rect class="c" x="2" y="34" rx="2" ry="2"/><rect class="c" x="2" y="50" rx="2" ry="2"/><rect class="c" x="2" y="66" rx="2" ry="2"/><rect class="c" x="2" y="82" rx="2" ry="2"/><rect class="c" x="2" y="98" rx="2" ry="2"/><rect class="c" x="18" y="2" rx="2" ry="2"/><rect class="c" x="18" y="18" rx="2" ry="2"/><rect class="c" x="18" y="34" rx="2" ry="2"/><rect class="c" x="18" y="50" rx="2" ry="2"/><rect class="c" x="18" y="66" rx="2" ry="2"/><rect class="c" x="18" y="82" rx="2" ry="2"/><rect class="c" x="18" y="98" rx="2" ry="2"/><rect class="c" x="34" y="2" rx="2" ry="2"/><rect class="c" x="34" y="18" rx="2" ry="2"/><rect class="c" x="34" y="34" rx="2" ry="2"/><rect class="c" x="34" y="50" rx="2" ry="2"/><rect class="c" x="34" y="66" rx="2" ry="2"/><rect class="c" x="34" y="82" rx="2" ry="2"/><rect class="c" x="34" y="98" rx="2" ry="2"/><rect class="c" x="50" y="2" rx="2" ry="2"/><rect class="c" x="50" y="18" rx="2" ry="2"/><rect class="c" x="50" y="34" rx="2" ry="2"/><rect class="c" x="50" y="50" rx="2" ry="2"/><rect class="c" x="50" y="66" rx="2" ry="2"/><rect class="c" x="50" y="82" rx="2" ry="2"/><rect class="c" x="50" y="98" rx="2" ry="2"/><rect class="c" x="66" y="2" rx="2" ry="2"/><rect class="c" x="66" y="18" rx="2" ry="2"/><rect class="c" x="66" y="34" rx="2" ry="2"/><rect class="c" x="66" y="50" rx="2" ry="2"/><rect class="c" x="66" y="66" rx="2" ry="2"/><rect class="c" x="66" y="82" rx="2" ry="2"/><rect class="c" x="66" y="98" rx="2" ry="2"/><rect class="c" x="82" y="2" rx="2" ry="2"/><rect class="c" x="82" y="18" rx="2" ry="2"/><rect class="c" x="82" y="34" rx="2" ry="2"/><rect class="c" x="82" y="50" rx="2" ry="2"/><rect class="c" x="82" y="66" rx="2" ry="2"/><rect class="c" x="82" y="82" rx="2" ry="2"/><rect class="c" x="82" y="98" rx="2" ry="2"/><rect class="c" x="98" y="2" rx="2" ry="2"/><rect class="c" x="98" y="18" rx="2" ry="2"/><rect class="c" x="98" y="34" rx="2" ry="2"/><rect class="c" x="98" y="50" rx="2" ry="2"/><rect class="c" x="98" y="66" rx="2" ry="2"/><rect class="c" x="98" y="82" rx="2" ry="2"/><rect class="c" x="98" y="98" rx="2" ry="2"/><rect class="c" x="114" y="2" rx="2" ry="2"/><rect class="c" x="114" y="18" rx="2" ry="2"/><rect class="c" x="114" y="34" rx="2" ry="2"/><rect class="c" x="114" y="50" rx="2" ry="2"/><rect class="c" x="114" y="66" rx="2" ry="2"/><rect class="c" x="114" y="82" rx="2" ry="2"/><rect class="c" x="114" y="98" rx="2" ry="2"/><rect class="c" x="130" y="2" rx="2" ry="2"/><rect class="c" x="130" y="18" rx="2" ry="2"/><rect class="c" x="130" y="34" rx="2" ry="2"/><rect class="c" x="130" y="50" rx="2" ry="2"/><rect class="c" x="130" y="66" rx="2" ry="2"/><rect class="c" x="130" y="82" rx="2" ry="2"/><rect class="c" x="130" y="98" rx="2" ry="2"/><rect class="c" x="146" y="2" rx="2" ry="2"/><rect class="c" x="146" y="18" rx="2" ry="2"/><rect class="c" x="146" y="34" rx="2" ry="2"/><rect class="c" x="146" y="50" rx="2" ry="2"/><rect class="c" x="146" y="66" rx="2" ry="2"/><rect class="c" x="146" y="82" rx="2" ry="2"/><rect class="c" x="146" y="98" rx="2" ry="2"/><rect class="c" x="162" y="2" rx="2" ry="2"/><rect class="c" x="162" y="18" rx="2" ry="2"/><rect class="c" x="162" y="34" rx="2" ry="2"/><rect class="c" x="162" y="50" rx="2" ry="2"/><rect class="c" x="162" y="66" rx="2" ry="2"/><rect class="c" x="162" y="82" rx="2" ry="2"/><rect class="c" x="162" y="98" rx="2" ry="2"/><rect class="c" x="178" y="2" rx="2" ry="2"/><rect class="c" x="178" y="18" rx="2" ry="2"/><rect class="c" x="178" y="34" rx="2" ry="2"/><rect class="c" x="178" y="50" rx="2" ry="2"/><rect class="c" x="178" y="66" rx="2" ry="2"/><rect class="c" x="178" y="82" rx="2" ry="2"/><rect class="c" x="178" y="98" rx="2" ry="2"/><rect class="c" x="194" y="2" rx="2" ry="2"/><rect class="c" x="194" y="18" rx="2" ry="2"/><rect class="c" x="194" y="34" rx="2" ry="2"/><rect class="c" x="194" y="50" rx="2" ry="2"/><rect class="c" x="194" y="66" rx="2" ry="2"/><rect class="c" x="194" y="82" rx="2" ry="2"/><rect class="c" x="194" y="98" rx="2" ry="2"/><rect class="c" x="210" y="2" rx="2" ry="2"/><rect class="c" x="210" y="18" rx="2" ry="2"/><rect class="c" x="210" y="34" rx="2" ry="2"/><rect class="c" x="210" y="50" rx="2" ry="2"/><rect class="c" x="210" y="66" rx="2" ry="2"/><rect class="c" x="210" y="82" rx="2" ry="2"/><rect class="c" x="210" y="98" rx="2" ry="2"/><rect class="c" x="226" y="2" rx="2" ry="2"/><rect class="c" x="226" y="18" rx="2" ry="2"/><rect class="c" x="226" y="34" rx="2" ry="2"/><rect class="c" x="226" y="50" rx="2" ry="2"/><rect class="c" x="226" y="66" rx="2" ry="2"/><rect class="c" x="226" y="82" rx="2" ry="2"/><rect class="c" x="226" y="98" rx="2" ry="2"/><rect class="c" x="242" y="2" rx="2" ry="2"/><rect class="c" x="242" y="18" rx="2" ry="2"/><rect class="c" x="242" y="34" rx="2" ry="2"/><rect class="c" x="242" y="50" rx="2" ry="2"/><rect class="c" x="242" y="66" rx="2" ry="2"/><rect class="c" x="242" y="82" rx="2" ry="2"/><rect class="c" x="242" y="98" rx="2" ry="2"/><rect class="c" x="258" y="2" rx="2" ry="2"/><rect class="c" x="258" y="18" rx="2" ry="2"/><rect class="c" x="258" y="34" rx="2" ry="2"/><rect class="c" x="258" y="50" rx="2" ry="2"/><rect class="c" x="258" y="66" rx="2" ry="2"/><rect class="c" x="258" y="82" rx="2" ry="2"/><rect class="c" x="258" y="98" rx="2" ry="2"/><rect class="c" x="274" y="2" rx="2" ry="2"/><rect class="c" x="274" y="18" rx="2" ry="2"/><rect class="c" x="274" y="34" rx="2" ry="2"/><rect class="c" x="274" y="50" rx="2" ry="2"/><rect class="c" x="274" y="66" rx="2" ry="2"/><rect class="c" x="274" y="82" rx="2" ry="2"/><rect class="c" x="274" y="98" rx="2" ry="2"/><rect class="c" x="290" y="2" rx="2" ry="2"/><rect class="c" x="290" y="18" rx="2" ry="2"/><rect class="c" x="290" y="34" rx="2" ry="2"/><rect class="c" x="290" y="50" rx="2" ry="2"/><rect class="c" x="290" y="66" rx="2" ry="2"/><rect class="c" x="290" y="82" rx="2" ry="2"/><rect class="c" x="290" y="98" rx="2" ry="2"/><rect class="c" x="306" y="2" rx="2" ry="2"/><rect class="c" x="306" y="18" rx="2" ry="2"/><rect class="c" x="306" y="34" rx="2" ry="2"/><rect class="c" x="306" y="50" rx="2" ry="2"/><rect class="c" x="306" y="66" rx="2" ry="2"/><rect class="c" x="306" y="82" rx="2" ry="2"/><rect class="c" x="306" y="98" rx="2" ry="2"/><rect class="c" x="322" y="2" rx="2" ry="2"/><rect class="c" x="322" y="18" rx="2" ry="2"/><rect class="c" x="322" y="34" rx="2" ry="2"/><rect class="c" x="322" y="50" rx="2" ry="2"/><rect class="c" x="322" y="66" rx="2" ry="2"/><rect class="c" x="322" y="82" rx="2" ry="2"/><rect class="c" x="322" y="98" rx="2" ry="2"/><rect class="c" x="338" y="2" rx="2" ry="2"/><rect class="c" x="338" y="18" rx="2" ry="2"/><rect class="c" x="338" y="34" rx="2" ry="2"/><rect class="c" x="338" y="50" rx="2" ry="2"/><rect class="c" x="338" y="66" rx="2" ry="2"/><rect class="c" x="338" y="82" rx="2" ry="2"/><rect class="c" x="338" y="98" rx="2" ry="2"/><rect class="c" x="354" y="2" rx="2" ry="2"/><rect class="c" x="354" y="18" rx="2" ry="2"/><rect class="c" x="354" y="34" rx="2" ry="2"/><rect class="c" x="354" y="50" rx="2" ry="2"/><rect class="c" x="354" y="66" rx="2" ry="2"/><rect class="c" x="354" y="82" rx="2" ry="2"/><rect class="c" x="354" y="98" rx="2" ry="2"/><rect class="c" x="370" y="2" rx="2" ry="2"/><rect class="c" x="370" y="18" rx="2" ry="2"/><rect class="c" x="370" y="34" rx="2" ry="2"/><rect class="c" x="370" y="50" rx="2" ry="2"/><rect class="c" x="370" y="66" rx="2" ry="2"/><rect class="c" x="370" y="82" rx="2" ry="2"/><rect class="c" x="370" y="98" rx="2" ry="2"/><rect class="c" x="386" y="2" rx="2" ry="2"/><rect class="c" x="386" y="18" rx="2" ry="2"/><rect class="c" x="386" y="34" rx="2" ry="2"/><rect class="c" x="386" y="50" rx="2" ry="2"/><rect class="c" x="386" y="66" rx="2" ry="2"/><rect class="c" x="386" y="82" rx="2" ry="2"/><rect class="c" x="386" y="98" rx="2" ry="2"/><rect class="c" x="402" y="2" rx="2" ry="2"/><rect class="c" x="402" y="18" rx="2" ry="2"/><rect class="c" x="402" y="34" rx="2" ry="2"/><rect class="c" x="402" y="50" rx="2" ry="2"/><rect class="c" x="402" y="66" rx="2" ry="2"/><rect class="c" x="402" y="82" rx="2" ry="2"/><rect class="c" x="402" y="98" rx="2" ry="2"/><rect class="c" x="418" y="2" rx="2" ry="2"/><rect class="c" x="418" y="18" rx="2" ry="2"/><rect class="c" x="418" y="34" rx="2" ry="2"/><rect class="c" x="418" y="50" rx="2" ry="2"/><rect class="c" x="418" y="66" rx="2" ry="2"/><rect class="c" x="418" y="82" rx="2" ry="2"/><rect class="c" x="418" y="98" rx="2" ry="2"/><rect class="c" x="434" y="2" rx="2" ry="2"/><rect class="c" x="434" y="18" rx="2" ry="2"/><rect class="c" x="434" y="34" rx="2" ry="2"/><rect class="c" x="434" y="50" rx="2" ry="2"/><rect class="c" x="434" y="66" rx="2" ry="2"/><rect class="c" x="434" y="82" rx="2" ry="2"/><rect class="c" x="434" y="98" rx="2" ry="2"/><rect class="c" x="450" y="2" rx="2" ry="2"/><rect class="c" x="450" y="18" rx="2" ry="2"/><rect class="c" x="450" y="34" rx="2" ry="2"/><rect class="c" x="450" y="50" rx="2" ry="2"/><rect class="c" x="450" y="66" rx="2" ry="2"/><rect class="c" x="450" y="82" rx="2" ry="2"/><rect class="c" x="450" y="98" rx="2" ry="2"/><rect class="c" x="466" y="2" rx="2" ry="2"/><rect class="c" x="466" y="18" rx="2" ry="2"/><rect class="c" x="466" y="34" rx="2" ry="2"/><rect class="c" x="466" y="50" rx="2" ry="2"/><rect class="c" x="466" y="66" rx="2" ry="2"/><rect class="c" x="466" y="82" rx="2" ry="2"/><rect class="c" x="466" y="98" rx="2" ry="2"/><rect class="c" x="482" y="2" rx="2" ry="2"/><rect class="c" x="482" y="18" rx="2" ry="2"/><rect class="c" x="482" y="34" rx="2" ry="2"/><rect class="c" x="482" y="50" rx="2" ry="2"/><rect class="c" x="482" y="66" rx="2" ry="2"/><rect class="c" x="482" y="82" rx="2" ry="2"/><rect class="c" x="482" y="98" rx="2" ry="2"/><rect class="c" x="498" y="2" rx="2" ry="2"/><rect class="c" x="498" y="18" rx="2" ry="2"/><rect class="c" x="498" y="34" rx="2" ry="2"/><rect class="c" x="498" y="50" rx="2" ry="2"/><rect class="c" x="498" y="66" rx="2" ry="2"/><rect class="c" x="498" y="82" rx="2" ry="2"/><rect class="c c0" x="498" y="98" rx="2" ry="2"/><rect class="c" x="514" y="2" rx="2" ry="2"/><rect class="c c1" x="514" y="18" rx="2" ry="2"/><rect class="c c2" x="514" y="34" rx="2" ry="2"/><rect class="c c3" x="514" y="50" rx="2" ry="2"/><rect class="c" x="514" y="66" rx="2" ry="2"/><rect class="c" x="514" y="82" rx="2" ry="2"/><rect class="c" x="514" y="98" rx="2" ry="2"/><rect class="c" x="530" y="2" rx="2" ry="2"/><rect class="c" x="530" y="18" rx="2" ry="2"/><rect class="c" x="530" y="34" rx="2" ry="2"/><rect class="c" x="530" y="50" rx="2" ry="2"/><rect class="c" x="530" y="66" rx="2" ry="2"/><rect class="c" x="530" y="82" rx="2" ry="2"/><rect class="c" x="530" y="98" rx="2" ry="2"/><rect class="c" x="546" y="2" rx="2" ry="2"/><rect class="c" x="546" y="18" rx="2" ry="2"/><rect class="c" x="546" y="34" rx="2" ry="2"/><rect class="c" x="546" y="50" rx="2" ry="2"/><rect class="c" x="546" y="66" rx="2" ry="2"/><rect class="c" x="546" y="82" rx="2" ry="2"/><rect class="c" x="546" y="98" rx="2" ry="2"/><rect class="c" x="562" y="2" rx="2" ry="2"/><rect class="c" x="562" y="18" rx="2" ry="2"/><rect class="c" x="562" y="34" rx="2" ry="2"/><rect class="c" x="562" y="50" rx="2" ry="2"/><rect class="c" x="562" y="66" rx="2" ry="2"/><rect class="c c4" x="562" y="82" rx="2" ry="2"/><rect class="c" x="562" y="98" rx="2" ry="2"/><rect class="c c5" x="578" y="2" rx="2" ry="2"/><rect class="c" x="578" y="18" rx="2" ry="2"/><rect class="c" x="578" y="34" rx="2" ry="2"/><rect class="c c6" x="578" y="50" rx="2" ry="2"/><rect class="c c7" x="578" y="66" rx="2" ry="2"/><rect class="c c8" x="578" y="82" rx="2" ry="2"/><rect class="c c9" x="578" y="98" rx="2" ry="2"/><rect class="c ca" x="594" y="2" rx="2" ry="2"/><rect class="c cb" x="594" y="18" rx="2" ry="2"/><rect class="c cc" x="594" y="34" rx="2" ry="2"/><rect class="c cd" x="594" y="50" rx="2" ry="2"/><rect class="c ce" x="594" y="66" rx="2" ry="2"/><rect class="c cf" x="594" y="82" rx="2" ry="2"/><rect class="c" x="594" y="98" rx="2" ry="2"/><rect class="c" x="610" y="2" rx="2" ry="2"/><rect class="c cg" x="610" y="18" rx="2" ry="2"/><rect class="c ch" x="610" y="34" rx="2" ry="2"/><rect class="c ci" x="610" y="50" rx="2" ry="2"/><rect class="c" x="610" y="66" rx="2" ry="2"/><rect class="c cj" x="610" y="82" rx="2" ry="2"/><rect class="c" x="610" y="98" rx="2" ry="2"/><rect class="c ck" x="626" y="2" rx="2" ry="2"/><rect class="c cl" x="626" y="18" rx="2" ry="2"/><rect class="c cm" x="626" y="34" rx="2" ry="2"/><rect class="c cn" x="626" y="50" rx="2" ry="2"/><rect class="c co" x="626" y="66" rx="2" ry="2"/><rect class="c cp" x="626" y="82" rx="2" ry="2"/><rect class="c" x="626" y="98" rx="2" ry="2"/><rect class="c" x="642" y="2" rx="2" ry="2"/><rect class="c cq" x="642" y="18" rx="2" ry="2"/><rect class="c" x="642" y="34" rx="2" ry="2"/><rect class="c" x="642" y="50" rx="2" ry="2"/><rect class="c cr" x="642" y="66" rx="2" ry="2"/><rect class="c" x="642" y="82" rx="2" ry="2"/><rect class="c cs" x="642" y="98" rx="2" ry="2"/><rect class="c" x="658" y="2" rx="2" ry="2"/><rect class="c" x="658" y="18" rx="2" ry="2"/><rect class="c" x="658" y="34" rx="2" ry="2"/><rect class="c" x="658" y="50" rx="2" ry="2"/><rect class="c" x="658" y="66" rx="2" ry="2"/><rect class="c" x="658" y="82" rx="2" ry="2"/><rect class="c" x="658" y="98" rx="2" ry="2"/><rect class="c" x="674" y="2" rx="2" ry="2"/><rect class="c" x="674" y="18" rx="2" ry="2"/><rect class="c ct" x="674" y="34" rx="2" ry="2"/><rect class="c" x="674" y="50" rx="2" ry="2"/><rect class="c" x="674" y="66" rx="2" ry="2"/><rect class="c" x="674" y="82" rx="2" ry="2"/><rect class="c" x="674" y="98" rx="2" ry="2"/><rect class="c" x="690" y="2" rx="2" ry="2"/><rect class="c" x="690" y="18" rx="2" ry="2"/><rect class="c" x="690" y="34" rx="2" ry="2"/><rect class="c" x="690" y="50" rx="2" ry="2"/><rect class="c" x="690" y="66" rx="2" ry="2"/><rect class="c" x="690" y="82" rx="2" ry="2"/><rect class="c" x="690" y="98" rx="2" ry="2"/><rect class="c" x="706" y="2" rx="2" ry="2"/><rect class="c" x="706" y="18" rx="2" ry="2"/><rect class="c" x="706" y="34" rx="2" ry="2"/><rect class="c" x="706" y="50" rx="2" ry="2"/><rect class="c" x="706" y="66" rx="2" ry="2"/><rect class="c" x="706" y="82" rx="2" ry="2"/><rect class="c" x="706" y="98" rx="2" ry="2"/><rect class="c" x="722" y="2" rx="2" ry="2"/><rect class="c" x="722" y="18" rx="2" ry="2"/><rect class="c cu" x="722" y="34" rx="2" ry="2"/><rect class="c" x="722" y="50" rx="2" ry="2"/><rect class="c" x="722" y="66" rx="2" ry="2"/><rect class="c" x="722" y="82" rx="2" ry="2"/><rect class="c" x="722" y="98" rx="2" ry="2"/><rect class="c" x="738" y="2" rx="2" ry="2"/><rect class="c" x="738" y="18" rx="2" ry="2"/><rect class="c" x="738" y="34" rx="2" ry="2"/><rect class="c" x="738" y="50" rx="2" ry="2"/><rect class="c" x="738" y="66" rx="2" ry="2"/><rect class="c" x="738" y="82" rx="2" ry="2"/><rect class="c" x="738" y="98" rx="2" ry="2"/><rect class="c" x="754" y="2" rx="2" ry="2"/><rect class="c" x="754" y="18" rx="2" ry="2"/><rect class="c" x="754" y="34" rx="2" ry="2"/><rect class="c" x="754" y="50" rx="2" ry="2"/><rect class="c" x="754" y="66" rx="2" ry="2"/><rect class="c" x="754" y="82" rx="2" ry="2"/><rect class="c" x="754" y="98" rx="2" ry="2"/><rect class="c" x="770" y="2" rx="2" ry="2"/><rect class="c" x="770" y="18" rx="2" ry="2"/><rect class="c" x="770" y="34" rx="2" ry="2"/><rect class="c" x="770" y="50" rx="2" ry="2"/><rect class="c" x="770" y="66" rx="2" ry="2"/><rect class="c" x="770" y="82" rx="2" ry="2"/><rect class="c" x="770" y="98" rx="2" ry="2"/><rect class="c" x="786" y="2" rx="2" ry="2"/><rect class="c cv" x="786" y="18" rx="2" ry="2"/><rect class="c cw" x="786" y="34" rx="2" ry="2"/><rect class="c" x="786" y="50" rx="2" ry="2"/><rect class="c" x="786" y="66" rx="2" ry="2"/><rect class="c" x="786" y="82" rx="2" ry="2"/><rect class="c" x="786" y="98" rx="2" ry="2"/><rect class="c" x="802" y="2" rx="2" ry="2"/><rect class="c" x="802" y="18" rx="2" ry="2"/><rect class="c cx" x="802" y="34" rx="2" ry="2"/><rect class="c" x="802" y="50" rx="2" ry="2"/><rect class="c cy" x="802" y="66" rx="2" ry="2"/><rect class="c cz" x="802" y="82" rx="2" ry="2"/><rect class="c c10" x="802" y="98" rx="2" ry="2"/><rect class="c c11" x="818" y="2" rx="2" ry="2"/><rect class="c c12" x="818" y="18" rx="2" ry="2"/><rect class="c c13" x="818" y="34" rx="2" ry="2"/><rect class="c c14" x="818" y="50" rx="2" ry="2"/><rect class="c c15" x="818" y="66" rx="2" ry="2"/><rect class="c c16" x="818" y="82" rx="2" ry="2"/><rect class="c c17" x="818" y="98" rx="2" ry="2"/><rect class="c" x="834" y="2" rx="2" ry="2"/><rect class="c" x="834" y="18" rx="2" ry="2"/><rect class="u u0" height="12" width="443.9" x="0.0" y="144"/><rect class="u u1" height="12" width="19.9" x="443.3" y="144"/><rect class="u u2" height="12" width="19.9" x="462.5" y="144"/><rect class="u u3" height="12" width="174.1" x="481.8" y="144"/><rect class="u u4" height="12" width="97.0" x="655.3" y="144"/><rect class="u u5" height="12" width="97.0" x="751.6" y="144"/><rect class="s s0" x="0.8" y="0.8" width="14.4" height="14.4" rx="4.5" ry="4.5"/><rect class="s s1" x="1.8" y="1.8" width="12.3" height="12.3" rx="4.1" ry="4.1"/><rect class="s s2" x="2.6" y="2.6" width="10.8" height="10.8" rx="3.6" ry="3.6"/><rect class="s s3" x="3.0" y="3.0" width="9.9" height="9.9" rx="3.3" ry="3.3"/></svg>